<svg id="visual" viewBox="0 0 900 100" width="900" height="100" xmlns="http://www.w3.org/2000/svg" xmlns:xlink="http://www.w3.org/1999/xlink" version="1.1"><path d="M0 43L11.5 38.8C23 34.7 46 26.3 69 30.3C92 34.3 115 50.7 138.2 55C161.3 59.3 184.7 51.7 207.8 47C231 42.3 254 40.7 277 42.5C300 44.3 323 49.7 346 53.2C369 56.7 392 58.3 415.2 57.7C438.3 57 461.7 54 484.8 54.8C508 55.7 531 60.3 554 61.8C577 63.3 600 61.7 623 58.8C646 56 669 52 692.2 45.7C715.3 39.3 738.7 30.7 761.8 27.7C785 24.7 808 27.3 831 29.2C854 31 877 32 888.5 32.5L900 33L900 101L888.5 101C877 101 854 101 831 101C808 101 785 101 761.8 101C738.7 101 715.3 101 692.2 101C669 101 646 101 623 101C600 101 577 101 554 101C531 101 508 101 484.8 101C461.7 101 438.3 101 415.2 101C392 101 369 101 346 101C323 101 300 101 277 101C254 101 231 101 207.8 101C184.7 101 161.3 101 138.2 101C115 101 92 101 69 101C46 101 23 101 11.5 101L0 101Z" fill="#fa7268"></path><path d="M0 25L11.5 25.5C23 26 46 27 69 30C92 33 115 38 138.2 46.2C161.3 54.3 184.7 65.7 207.8 65.2C231 64.7 254 52.3 277 46.3C300 40.3 323 40.7 346 44.8C369 49 392 57 415.2 62.7C438.3 68.3 461.7 71.7 484.8 73.2C508 74.7 531 74.3 554 66.8C577 59.3 600 44.7 623 42C646 39.3 669 48.7 692.2 49.3C715.3 50 738.7 42 761.8 37C785 32 808 30 831 27.8C854 25.7 877 23.3 888.5 22.2L900 21L900 101L888.5 101C877 101 854 101 831 101C808 101 785 101 761.8 101C738.7 101 715.3 101 692.2 101C669 101 646 101 623 101C600 101 577 101 554 101C531 101 508 101 484.8 101C461.7 101 438.3 101 415.2 101C392 101 369 101 346 101C323 101 300 101 277 101C254 101 231 101 207.8 101C184.7 101 161.3 101 138.2 101C115 101 92 101 69 101C46 101 23 101 11.5 101L0 101Z" fill="#fb6060"></path><path d="M0 53L11.5 58.3C23 63.7 46 74.3 69 77.3C92 80.3 115 75.7 138.2 74.5C161.3 73.3 184.7 75.7 207.8 76.3C231 77 254 76 277 71.3C300 66.7 323 58.3 346 56.2C369 54 392 58 415.2 60C438.3 62 461.7 62 484.8 62.8C508 63.7 531 65.3 554 62.3C577 59.3 600 51.7 623 47.3C646 43 669 42 692.2 48.7C715.3 55.3 738.7 69.7 761.8 72.8C785 76 808 68 831 60.7C854 53.3 877 46.7 888.5 43.3L900 40L900 101L888.5 101C877 101 854 101 831 101C808 101 785 101 761.8 101C738.7 101 715.3 101 692.2 101C669 101 646 101 623 101C600 101 577 101 554 101C531 101 508 101 484.8 101C461.7 101 438.3 101 415.2 101C392 101 369 101 346 101C323 101 300 101 277 101C254 101 231 101 207.8 101C184.7 101 161.3 101 138.2 101C115 101 92 101 69 101C46 101 23 101 11.5 101L0 101Z" fill="#fd4b5a"></path><path d="M0 89L11.5 90C23 91 46 93 69 89.5C92 86 115 77 138.2 73.7C161.3 70.3 184.7 72.7 207.8 73C231 73.3 254 71.7 277 73C300 74.3 323 78.7 346 78C369 77.3 392 71.7 415.2 73.7C438.3 75.7 461.7 85.3 484.8 89.8C508 94.3 531 93.7 554 90C577 86.3 600 79.7 623 76.3C646 73 669 73 692.2 75.3C715.3 77.7 738.7 82.3 761.8 82.7C785 83 808 79 831 76C854 73 877 71 888.5 70L900 69L900 101L888.5 101C877 101 854 101 831 101C808 101 785 101 761.8 101C738.7 101 715.3 101 692.2 101C669 101 646 101 623 101C600 101 577 101 554 101C531 101 508 101 484.8 101C461.7 101 438.3 101 415.2 101C392 101 369 101 346 101C323 101 300 101 277 101C254 101 231 101 207.8 101C184.7 101 161.3 101 138.2 101C115 101 92 101 69 101C46 101 23 101 11.5 101L0 101Z" fill="#fe2c55"></path></svg>